<svg width="54" height="54" viewBox="0 0 54 54" fill="none" xmlns="http://www.w3.org/2000/svg">
<circle cx="27" cy="27" r="26.5" stroke="#D7D7D7"/>
<g clip-path="url(#clip0_913_1118)">
<path d="M28.8125 18.3125C28.8125 17.5865 28.226 17 27.5 17C26.774 17 26.1875 17.5865 26.1875 18.3125V26.1875H18.3125C17.5865 26.1875 17 26.774 17 27.5C17 28.226 17.5865 28.8125 18.3125 28.8125H26.1875V36.6875C26.1875 37.4135 26.774 38 27.5 38C28.226 38 28.8125 37.4135 28.8125 36.6875V28.8125H36.6875C37.4135 28.8125 38 28.226 38 27.5C38 26.774 37.4135 26.1875 36.6875 26.1875H28.8125V18.3125Z" fill="black"/>
</g>
<defs>
<clipPath id="clip0_913_1118">
<rect width="21" height="21" fill="white" transform="translate(17 17)"/>
</clipPath>
</defs>
</svg>
